<?xml version="1.0" encoding="UTF-8" standalone="no"?>
<!-- Created with Inkscape (http://www.inkscape.org/) -->

<svg
   width="19.986677mm"
   height="19.831551mm"
   viewBox="0 0 19.986677 19.831551"
   version="1.1"
   id="svg1"
   inkscape:version="1.3 (0e150ed, 2023-07-21)"
   sodipodi:docname="money-manager-assets.svg"
   xmlns:inkscape="http://www.inkscape.org/namespaces/inkscape"
   xmlns:sodipodi="http://sodipodi.sourceforge.net/DTD/sodipodi-0.dtd"
   xmlns="http://www.w3.org/2000/svg"
   xmlns:svg="http://www.w3.org/2000/svg">
  <sodipodi:namedview
     id="namedview1"
     pagecolor="#ffffff"
     bordercolor="#000000"
     borderopacity="0.25"
     inkscape:showpageshadow="2"
     inkscape:pageopacity="0.0"
     inkscape:pagecheckerboard="0"
     inkscape:deskcolor="#d1d1d1"
     inkscape:document-units="mm"
     inkscape:zoom="4.1121711"
     inkscape:cx="-28.330533"
     inkscape:cy="66.874649"
     inkscape:window-width="1870"
     inkscape:window-height="1016"
     inkscape:window-x="50"
     inkscape:window-y="1107"
     inkscape:window-maximized="1"
     inkscape:current-layer="g15" />
  <defs
     id="defs1" />
  <g
     inkscape:label="Layer 1"
     inkscape:groupmode="layer"
     id="layer1"
     transform="translate(-235.84903,-47.373375)">
    <g
       id="g9"
       transform="translate(-5.0628182,-5.2816477)">
      <circle
         style="fill:#000000;fill-opacity:1;stroke:#000000;stroke-width:0.434975;stroke-linecap:round;stroke-dasharray:none;stroke-opacity:1"
         id="path5"
         cx="225.17577"
         cy="41.405899"
         r="2.1318429" />
      <rect
         style="fill:#000000;fill-opacity:1;stroke:#000000;stroke-width:0.270498;stroke-linecap:round;stroke-dasharray:none;stroke-opacity:1"
         id="rect5"
         width="6.5268369"
         height="1.0281751"
         x="221.89592"
         y="41.025253" />
      <rect
         style="fill:#000000;fill-opacity:1;stroke:#000000;stroke-width:0.270498;stroke-linecap:round;stroke-dasharray:none;stroke-opacity:1"
         id="rect6"
         width="6.5268369"
         height="1.0281751"
         x="38.125668"
         y="-225.71468"
         transform="rotate(90)" />
      <rect
         style="fill:#000000;fill-opacity:1;stroke:#000000;stroke-width:0.270498;stroke-linecap:round;stroke-dasharray:none;stroke-opacity:1"
         id="rect7"
         width="6.5268369"
         height="1.0281751"
         x="-190.10106"
         y="131.69266"
         transform="rotate(-134.2818)" />
      <rect
         style="fill:#000000;fill-opacity:1;stroke:#000000;stroke-width:0.270498;stroke-linecap:round;stroke-dasharray:none;stroke-opacity:1"
         id="rect8"
         width="6.5268369"
         height="1.0281751"
         x="124.25109"
         y="-190.7099"
         transform="matrix(0.69818791,-0.71591455,-0.71591455,-0.69818791,0,0)" />
      <rect
         style="fill:#000000;fill-opacity:1;stroke:#000000;stroke-width:0.270498;stroke-linecap:round;stroke-dasharray:none;stroke-opacity:1"
         id="rect9"
         width="6.5268369"
         height="1.0281751"
         x="-190.10106"
         y="131.69266"
         transform="rotate(-134.2818)" />
      <circle
         style="fill:#ffffff;fill-opacity:1;stroke:#000000;stroke-width:0.316172;stroke-linecap:round;stroke-dasharray:none;stroke-opacity:1"
         id="circle9"
         cx="225.18344"
         cy="41.436146"
         r="1.5495815" />
    </g>
    <g
       id="g16"
       transform="translate(-1.4589255,2.0366692)">
      <g
         id="g4"
         inkscape:label="Coin"
         transform="translate(0.10219871,0.07510568)">
        <path
           id="path2"
           style="fill:#ffdd55;fill-opacity:1;stroke:none;stroke-width:0.252072;stroke-linecap:round;stroke-dasharray:none"
           inkscape:label="coin"
           d="m 246.93623,49.399348 v -1.792656 c -0.0493,0.0055 -0.0973,0.01199 -0.14366,0.01964 -0.0464,0.0076 -0.0909,0.01658 -0.13436,0.02636 -0.0434,0.0098 -0.0856,0.02066 -0.12609,0.03256 -0.0405,0.01189 -0.0797,0.02474 -0.1173,0.03876 -0.0376,0.01402 -0.0738,0.02882 -0.10852,0.04496 -0.0347,0.01614 -0.0675,0.03341 -0.0992,0.05168 -0.0318,0.01826 -0.0621,0.03749 -0.0909,0.05788 -0.0288,0.02039 -0.0563,0.04208 -0.0822,0.0646 -0.0259,0.02251 -0.0502,0.04591 -0.0729,0.07028 -0.0227,0.02437 -0.0436,0.04973 -0.063,0.07596 -0.0194,0.02623 -0.0376,0.05356 -0.0537,0.08165 -0.0162,0.02809 -0.0305,0.05687 -0.0434,0.08682 -0.013,0.02995 -0.0244,0.0607 -0.0341,0.0925 -0.01,0.03181 -0.0178,0.06452 -0.0243,0.09819 -0.006,0.03366 -0.0112,0.06835 -0.0145,0.10387 -0.003,0.03552 -0.005,0.07217 -0.005,0.109554 0,0.03653 0.002,0.07194 0.005,0.106454 0.003,0.03451 0.007,0.06827 0.0134,0.100769 0.006,0.03249 0.0133,0.06357 0.0222,0.09405 0.009,0.03048 0.0191,0.05991 0.031,0.08837 0.0119,0.02846 0.0254,0.05624 0.0403,0.08268 0.0149,0.02644 0.0312,0.05154 0.0491,0.07596 0.0178,0.02443 0.0371,0.04787 0.0579,0.07028 0.0208,0.02241 0.0429,0.04421 0.0667,0.0646 0.0223,0.01878 0.047,0.0367 0.0724,0.05426 z" />
        <path
           id="path4"
           style="fill:#ff613f;fill-opacity:1;stroke:none;stroke-width:0.252072;stroke-linecap:round;stroke-dasharray:none"
           inkscape:label="coin"
           d="M 247.44576,49.400381 V 47.61186 c 0.0782,0.0034 0.15596,0.0086 0.23306,0.01602 0.0771,0.0074 0.15341,0.01695 0.22944,0.02842 0.076,0.01147 0.15189,0.0248 0.22686,0.04031 0.075,0.0155 0.14933,0.03317 0.22325,0.05271 0.0748,0.01954 0.14902,0.04102 0.22272,0.0646 0.0737,0.02358 0.14647,0.04939 0.21911,0.077 0.0726,0.02761 0.14495,0.05724 0.21652,0.08888 0.0716,0.03165 0.14291,0.06509 0.21343,0.100769 V 47.18863 c -0.0705,-0.02294 -0.14155,-0.04472 -0.21291,-0.06511 -0.0714,-0.02039 -0.14328,-0.03952 -0.21549,-0.05736 -0.0722,-0.01784 -0.14501,-0.03432 -0.21807,-0.04961 -0.0731,-0.01529 -0.14623,-0.02911 -0.22015,-0.04186 -0.0739,-0.01359 -0.14857,-0.02616 -0.22376,-0.03721 -0.0752,-0.01105 -0.15091,-0.02044 -0.22737,-0.02894 -0.0765,-0.0085 -0.15378,-0.01576 -0.23151,-0.0217 -0.0777,-0.0059 -0.15612,-0.01055 -0.23513,-0.01395 v -1.182874 h -0.50953 v 1.19786 c -0.0866,0.0059 -0.17109,0.01409 -0.2527,0.02429 -0.0816,0.0102 -0.16063,0.02225 -0.23719,0.03669 -0.0766,0.01444 -0.15069,0.03144 -0.22221,0.05013 -0.0715,0.01869 -0.14023,0.03907 -0.20671,0.06201 -0.0665,0.02294 -0.1308,0.04826 -0.19223,0.07545 -0.0614,0.02719 -0.12035,0.05642 -0.17674,0.08785 -0.0564,0.03143 -0.10988,0.06509 -0.16123,0.100769 -0.0513,0.03568 -0.10046,0.07324 -0.14676,0.113171 -0.0463,0.03993 -0.0897,0.08198 -0.13022,0.125574 -0.0405,0.04359 -0.0779,0.08917 -0.11266,0.136426 -0.0347,0.04726 -0.0667,0.09636 -0.0956,0.147278 -0.0289,0.05092 -0.0549,0.103545 -0.078,0.158129 -0.0231,0.05458 -0.0436,0.110734 -0.061,0.168982 -0.0174,0.05825 -0.0318,0.118439 -0.0434,0.180351 -0.0116,0.06191 -0.02,0.125627 -0.0258,0.191203 -0.006,0.06558 -0.009,0.132816 -0.009,0.202055 0,0.06372 0.003,0.126233 0.008,0.186552 0.005,0.06032 0.0132,0.118779 0.0238,0.1757 0.0106,0.05692 0.0239,0.111842 0.0398,0.165364 0.0126,0.04251 0.0284,0.08314 0.0444,0.123507 h 1.17926 c -0.0254,-0.01756 -0.05,-0.03548 -0.0724,-0.05426 -0.0238,-0.02039 -0.0459,-0.04219 -0.0667,-0.0646 -0.0208,-0.02241 -0.04,-0.04586 -0.0579,-0.07028 -0.0178,-0.02443 -0.0342,-0.04952 -0.0491,-0.07596 -0.0149,-0.02644 -0.0284,-0.05422 -0.0403,-0.08268 -0.0119,-0.02846 -0.0221,-0.05789 -0.031,-0.08837 -0.009,-0.03048 -0.0163,-0.06156 -0.0222,-0.09405 -0.006,-0.0325 -0.0105,-0.06626 -0.0134,-0.100769 -0.003,-0.03451 -0.005,-0.06992 -0.005,-0.106454 0,-0.03738 0.002,-0.07403 0.005,-0.109554 0.003,-0.03552 0.008,-0.07021 0.0145,-0.10387 0.006,-0.03366 0.0146,-0.06638 0.0243,-0.09819 0.01,-0.0318 0.0212,-0.06255 0.0341,-0.0925 0.013,-0.02995 0.0272,-0.05873 0.0434,-0.08682 0.0162,-0.02809 0.0343,-0.05542 0.0537,-0.08165 0.0194,-0.02623 0.0404,-0.05159 0.063,-0.07596 0.0227,-0.02437 0.047,-0.04777 0.0729,-0.07028 0.0259,-0.02251 0.0533,-0.04421 0.0822,-0.0646 0.0288,-0.02039 0.0592,-0.03961 0.0909,-0.05788 0.0318,-0.01827 0.0645,-0.03554 0.0992,-0.05168 0.0347,-0.01614 0.0709,-0.03094 0.10852,-0.04496 0.0376,-0.01402 0.0768,-0.02686 0.1173,-0.03876 0.0405,-0.01189 0.0827,-0.02279 0.12609,-0.03256 0.0434,-0.0098 0.088,-0.01871 0.13436,-0.02636 0.0463,-0.0076 0.0944,-0.01411 0.14366,-0.01964 v 1.792656 h 0.24081 z" />
        <path
           id="path3"
           style="fill:#ffdd55;fill-opacity:1;stroke:none;stroke-width:0.252072;stroke-linecap:round;stroke-dasharray:none"
           inkscape:label="coin"
           d="m 247.18686,45.261616 a 4.7641373,4.1378961 0 0 0 -2.38642,0.551387 4.7641373,4.1378961 0 0 0 -2.38745,3.586345 h 2.48822 c -0.016,-0.04037 -0.0318,-0.081 -0.0444,-0.123507 -0.0159,-0.05352 -0.0292,-0.108444 -0.0398,-0.165364 -0.0106,-0.05692 -0.0185,-0.115382 -0.0238,-0.1757 -0.005,-0.06032 -0.008,-0.122835 -0.008,-0.186552 0,-0.06924 0.003,-0.13648 0.009,-0.202055 0.006,-0.06558 0.0143,-0.129291 0.0258,-0.191203 0.0116,-0.06191 0.026,-0.122103 0.0434,-0.180351 0.0174,-0.05825 0.0378,-0.114397 0.061,-0.168982 0.0232,-0.05458 0.0491,-0.107209 0.078,-0.158129 0.0289,-0.05092 0.0609,-0.100022 0.0956,-0.147278 0.0347,-0.04726 0.0721,-0.09283 0.11266,-0.136426 0.0405,-0.04359 0.0839,-0.08564 0.13022,-0.125574 0.0463,-0.03993 0.0954,-0.07749 0.14676,-0.113171 0.0513,-0.03568 0.10484,-0.06934 0.16123,-0.100769 0.0564,-0.03143 0.1153,-0.06066 0.17674,-0.08785 0.0614,-0.02719 0.12576,-0.05251 0.19223,-0.07545 0.0665,-0.02294 0.13519,-0.04332 0.20671,-0.06201 0.0715,-0.01869 0.14564,-0.03568 0.22221,-0.05013 0.0766,-0.01444 0.15558,-0.02649 0.23719,-0.03669 0.0816,-0.01019 0.16605,-0.01834 0.2527,-0.02429 v -1.19786 h 0.50953 v 1.182874 c 0.079,0.0034 0.15739,0.008 0.23513,0.01395 0.0777,0.0059 0.15505,0.01321 0.23151,0.0217 0.0765,0.0085 0.15219,0.01789 0.22737,0.02894 0.0752,0.01104 0.14985,0.02361 0.22376,0.03721 0.0739,0.01274 0.14708,0.02656 0.22015,0.04186 0.0731,0.01529 0.14586,0.03177 0.21807,0.04961 0.0722,0.01784 0.14413,0.03697 0.21549,0.05736 0.0714,0.02039 0.14239,0.04217 0.21291,0.06511 v 0.891935 c -0.0705,-0.03568 -0.14185,-0.06912 -0.21343,-0.100769 -0.0716,-0.03165 -0.14388,-0.06127 -0.21652,-0.08888 -0.0726,-0.02761 -0.14541,-0.05342 -0.21911,-0.077 -0.0737,-0.02358 -0.14796,-0.04506 -0.22272,-0.0646 -0.0739,-0.01954 -0.14827,-0.03721 -0.22325,-0.05271 -0.075,-0.0155 -0.15082,-0.02884 -0.22686,-0.04031 -0.076,-0.01147 -0.15234,-0.02099 -0.22944,-0.02842 -0.0771,-0.0074 -0.1549,-0.01262 -0.23306,-0.01602 v 1.788521 l 4.49533,0.0155 a 4.7641373,4.1378961 0 0 0 -2.37091,-3.594612 4.7641373,4.1378961 0 0 0 -2.38332,-0.559656 z" />
      </g>
      <rect
         style="fill:#77dd77;fill-opacity:1;stroke:none;stroke-width:0.262099;stroke-linecap:round;stroke-dasharray:none"
         id="rect2"
         width="19.986677"
         height="15.772005"
         x="237.30795"
         y="49.396252"
         ry="2.0300095" />
      <g
         id="g15">
        <g
           id="g14"
           transform="translate(11.137105,3.1332913)"
           style="stroke:none">
          <path
             id="circle10"
             style="fill:#1d6000;fill-opacity:1;stroke:none;stroke-width:0.661275;stroke-linecap:round;stroke-dasharray:none;stroke-opacity:1"
             d="m 235.47477,49.145349 v 1.839906 a 3.2409429,3.2409429 0 0 0 -1.01343,0.423446 l -1.26799,-1.300191 -1.11871,1.091218 1.32141,1.355181 a 3.2409429,3.2409429 0 0 0 -0.3606,0.998516 h -1.80377 v 1.56337 h 1.90354 a 3.2409429,3.2409429 0 0 0 0.39831,0.823322 l -1.31276,1.345755 1.11949,1.091217 1.35754,-1.392107 a 3.2409429,3.2409429 0 0 0 0.77697,0.293819 v 1.788841 h 1.56259 v -1.805339 a 3.2409429,3.2409429 0 0 0 0.68663,-0.269464 l 1.27819,1.311187 1.11871,-1.092002 -1.2279,-1.258551 a 3.2409429,3.2409429 0 0 0 0.40851,-0.836678 h 1.85326 v -1.56337 h -1.74878 a 3.2409429,3.2409429 0 0 0 -0.36845,-1.018156 l 1.23027,-1.261694 -1.11871,-1.091217 -1.18785,1.218486 a 3.2409429,3.2409429 0 0 0 -0.92388,-0.403804 v -1.851691 z" />
        </g>
        <text
           xml:space="preserve"
           style="font-size:4.44963px;fill:#f9f9f9;fill-opacity:1;stroke:none;stroke-width:0.3048;stroke-linecap:round;stroke-dasharray:none;stroke-opacity:1"
           x="246.00385"
           y="58.522461"
           id="text14"><tspan
             sodipodi:role="line"
             id="tspan14"
             style="fill:#f9f9f9;stroke-width:0.3048"
             x="246.00385"
             y="58.522461">$</tspan></text>
      </g>
    </g>
  </g>
</svg>
